<svg xmlns="http://www.w3.org/2000/svg" style="display: none;">
    <symbol id="icon-star" >
        <defs>
            <linearGradient id="paint0_linear_101_990" x1="3.43872" y1="3.82001" x2="21.9006" y2="20.2076" gradientUnits="userSpaceOnUse">
            <stop stop-color="#FFEE58"/>
            <stop offset="1" stop-color="#FF8F00"/>
            </linearGradient>
        </defs>
        <path d="M12.0001 17.52L7.85007 20.02C7.66674 20.1367 7.47507 20.1867 7.27507 20.17C7.07507 20.1533 6.90007 20.0867 6.75007 19.97C6.60007 19.8533 6.4834 19.7077 6.40007 19.533C6.31674 19.3577 6.30007 19.1617 6.35007 18.945L7.45007 14.22L3.77507 11.045C3.6084 10.895 3.5044 10.724 3.46307 10.532C3.42107 10.3407 3.4334 10.1533 3.50007 9.97001C3.56674 9.78667 3.66674 9.63667 3.80007 9.52001C3.9334 9.40334 4.11674 9.32834 4.35007 9.29501L9.20007 8.87001L11.0751 4.42001C11.1584 4.22001 11.2877 4.07001 11.4631 3.97001C11.6377 3.87001 11.8167 3.82001 12.0001 3.82001C12.1834 3.82001 12.3627 3.87001 12.5381 3.97001C12.7127 4.07001 12.8417 4.22001 12.9251 4.42001L14.8001 8.87001L19.6501 9.29501C19.8834 9.32834 20.0667 9.40334 20.2001 9.52001C20.3334 9.63667 20.4334 9.78667 20.5001 9.97001C20.5667 10.1533 20.5794 10.3407 20.5381 10.532C20.4961 10.724 20.3917 10.895 20.2251 11.045L16.5501 14.22L17.6501 18.945C17.7001 19.1617 17.6834 19.3577 17.6001 19.533C17.5167 19.7077 17.4001 19.8533 17.2501 19.97C17.1001 20.0867 16.9251 20.1533 16.7251 20.17C16.5251 20.1867 16.3334 20.1367 16.1501 20.02L12.0001 17.52Z" fill="url(#paint0_linear_101_990)"/>
    </symbol>   
    <symbol id="icon-play" > 
        <path d="M10 7L15 12L10 17L10 7Z" fill="currentColor"/>
        <path fill-rule="evenodd" clip-rule="evenodd" d="M19.2 1.8H4.8C3.14315 1.8 1.8 3.14315 1.8 4.8V19.2C1.8 20.8569 3.14315 22.2 4.8 22.2H19.2C20.8569 22.2 22.2 20.8569 22.2 19.2V4.8C22.2 3.14315 20.8569 1.8 19.2 1.8ZM4.8 0C2.14903 0 0 2.14903 0 4.8V19.2C0 21.851 2.14903 24 4.8 24H19.2C21.851 24 24 21.851 24 19.2V4.8C24 2.14903 21.851 0 19.2 0H4.8Z" fill="currentColor"/>
    </symbol> 
    <symbol id="icon-search" > 
        <g clip-path="url(#clip0_101_1013)"><path fill-rule="evenodd" clip-rule="evenodd" d="M10.5 2C9.1446 2.00012 7.80887 2.32436 6.60427 2.94569C5.39966 3.56702 4.3611 4.46742 3.57525 5.57175C2.78939 6.67609 2.27902 7.95235 2.08672 9.29404C1.89442 10.6357 2.02576 12.004 2.46979 13.2846C2.91382 14.5652 3.65766 15.7211 4.63925 16.6557C5.62084 17.5904 6.81171 18.2768 8.11252 18.6576C9.41333 19.0384 10.7864 19.1026 12.117 18.8449C13.4477 18.5872 14.6975 18.015 15.762 17.176L19.414 20.828C19.6026 21.0102 19.8552 21.111 20.1174 21.1087C20.3796 21.1064 20.6304 21.0012 20.8158 20.8158C21.0012 20.6304 21.1064 20.3796 21.1087 20.1174C21.111 19.8552 21.0102 19.6026 20.828 19.414L17.176 15.762C18.164 14.5086 18.7792 13.0024 18.9511 11.4157C19.123 9.82905 18.8448 8.22602 18.1482 6.79009C17.4517 5.35417 16.3649 4.14336 15.0123 3.29623C13.6597 2.44911 12.096 1.99989 10.5 2ZM4.00001 10.5C4.00001 8.77609 4.68483 7.12279 5.90382 5.90381C7.1228 4.68482 8.7761 4 10.5 4C12.2239 4 13.8772 4.68482 15.0962 5.90381C16.3152 7.12279 17 8.77609 17 10.5C17 12.2239 16.3152 13.8772 15.0962 15.0962C13.8772 16.3152 12.2239 17 10.5 17C8.7761 17 7.1228 16.3152 5.90382 15.0962C4.68483 13.8772 4.00001 12.2239 4.00001 10.5Z" fill="currentColor"/></g><defs><clipPath id="clip0_101_1013"><rect width="24" height="24" fill="currentColor"/></clipPath></defs>
    </symbol> 
    <symbol id="icon-close">
        <path d="M6.4 19L5 17.6L10.6 12L5 6.4L6.4 5L12 10.6L17.6 5L19 6.4L13.4 12L19 17.6L17.6 19L12 13.4L6.4 19Z" fill="currentColor"/>
    </symbol>   
    <symbol id="icon-quote" > 
        <g id="SVGRepo_bgCarrier" stroke-width="0"/>
        <g id="SVGRepo_tracerCarrier" stroke-linecap="round" stroke-linejoin="round"/>
        <g id="SVGRepo_iconCarrier"> <rect x="0" y="0" style="fill:#ECF0;" width="57" height="57"/> <g> <circle style="fill:#BDC3C7;" cx="18.5" cy="31.5" r="5.5"/> <path style="fill:#BDC3C7;" d="M18.5,38c-3.584,0-6.5-2.916-6.5-6.5s2.916-6.5,6.5-6.5s6.5,2.916,6.5,6.5S22.084,38,18.5,38z M18.5,27c-2.481,0-4.5,2.019-4.5,4.5s2.019,4.5,4.5,4.5s4.5-2.019,4.5-4.5S20.981,27,18.5,27z"/> </g> <g> <circle style="fill:#BDC3C7;" cx="35.5" cy="31.5" r="5.5"/> <path style="fill:#BDC3C7;" d="M35.5,38c-3.584,0-6.5-2.916-6.5-6.5s2.916-6.5,6.5-6.5s6.5,2.916,6.5,6.5S39.084,38,35.5,38z M35.5,27c-2.481,0-4.5,2.019-4.5,4.5s2.019,4.5,4.5,4.5s4.5-2.019,4.5-4.5S37.981,27,35.5,27z"/> </g> <path style="fill:#BDC3C7;" d="M13,32c-0.553,0-1-0.447-1-1c0-7.72,6.28-14,14-14c0.553,0,1,0.447,1,1s-0.447,1-1,1 c-6.617,0-12,5.383-12,12C14,31.553,13.553,32,13,32z"/> <path style="fill:#BDC3C7;" d="M30,32c-0.553,0-1-0.447-1-1c0-7.72,6.28-14,14-14c0.553,0,1,0.447,1,1s-0.447,1-1,1 c-6.617,0-12,5.383-12,12C31,31.553,30.553,32,30,32z"/> </g>
    </symbol>
</svg>