<svg xmlns="http://www.w3.org/2000/svg" width="20" height="20" viewBox="0 0 20 20" fill="none">
  <g clip-path="url(#clip0_101_1041)">
    <path fill-rule="evenodd" clip-rule="evenodd" d="M8.74997 1.66663C7.62046 1.66672 6.50735 1.93693 5.50351 2.4547C4.49967 2.97248 3.63421 3.72281 2.97933 4.64309C2.32445 5.56337 1.89914 6.62691 1.73889 7.745C1.57864 8.86308 1.68809 10.0033 2.05812 11.0704C2.42814 12.1376 3.04801 13.1008 3.866 13.8797C4.68399 14.6586 5.67639 15.2306 6.7604 15.548C7.8444 15.8653 8.98859 15.9188 10.0975 15.7041C11.2064 15.4893 12.2478 15.0124 13.135 14.3133L16.1783 17.3566C16.3355 17.5084 16.546 17.5924 16.7645 17.5905C16.983 17.5886 17.192 17.501 17.3465 17.3465C17.501 17.192 17.5886 16.983 17.5905 16.7645C17.5924 16.546 17.5084 16.3355 17.3566 16.1783L14.3133 13.135C15.1366 12.0905 15.6493 10.8353 15.7926 9.51306C15.9358 8.19083 15.704 6.85498 15.1235 5.65837C14.543 4.46176 13.6374 3.45276 12.5102 2.74682C11.3831 2.04088 10.0799 1.66654 8.74997 1.66663ZM3.3333 8.74996C3.3333 7.31337 3.90398 5.93562 4.91981 4.9198C5.93563 3.90398 7.31338 3.33329 8.74997 3.33329C10.1866 3.33329 11.5643 3.90398 12.5801 4.9198C13.596 5.93562 14.1666 7.31337 14.1666 8.74996C14.1666 10.1865 13.596 11.5643 12.5801 12.5801C11.5643 13.5959 10.1866 14.1666 8.74997 14.1666C7.31338 14.1666 5.93563 13.5959 4.91981 12.5801C3.90398 11.5643 3.3333 10.1865 3.3333 8.74996Z" fill="black" fill-opacity="0.6"/>
  </g>
  <defs>
    <clipPath id="clip0_101_1041">
      <rect width="20" height="20" fill="white"/>
    </clipPath>
  </defs>
</svg>